<svg width="70" height="22" viewBox="0 0 70 22" fill="none" xmlns="http://www.w3.org/2000/svg">
<path fill-rule="evenodd" clip-rule="evenodd" d="M4.27783 8.44443C4.27783 7.85788 4.55849 7.30674 5.03285 6.96175L9.92174 3.40619C10.5646 2.93866 11.4355 2.93866 12.0784 3.40619L14.0556 4.84419V4.45531C14.0556 4.1178 14.3292 3.8442 14.6667 3.8442H16.7627C17.1002 3.8442 17.3738 4.1178 17.3738 4.45531V7.36905C17.5975 7.67804 17.7223 8.05336 17.7223 8.44443V16.6775C17.7223 17.69 16.9015 18.5109 15.8889 18.5109H6.11117C5.09864 18.5109 4.27783 17.69 4.27783 16.6775V8.44443ZM10.3889 9.95531C9.71393 9.95531 9.16672 10.5025 9.16672 11.1775V12.3998C9.16672 13.0748 9.71393 13.622 10.3889 13.622H11.6112C12.2862 13.622 12.8334 13.0748 12.8334 12.3998V11.1775C12.8334 10.5025 12.2862 9.95531 11.6112 9.95531H10.3889Z" fill="#8B8B8B"/>
<path d="M31.1186 16.5V6.31818H32.6548V10.7429H37.7308V6.31818H39.272V16.5H37.7308V12.0604H32.6548V16.5H31.1186ZM44.7465 16.6541C44.0306 16.6541 43.4059 16.4901 42.8722 16.1619C42.3386 15.8338 41.9243 15.3748 41.6293 14.7848C41.3344 14.1948 41.1869 13.5054 41.1869 12.7166C41.1869 11.9245 41.3344 11.2318 41.6293 10.6385C41.9243 10.0452 42.3386 9.58452 42.8722 9.25639C43.4059 8.92827 44.0306 8.7642 44.7465 8.7642C45.4624 8.7642 46.0872 8.92827 46.6208 9.25639C47.1544 9.58452 47.5687 10.0452 47.8637 10.6385C48.1587 11.2318 48.3062 11.9245 48.3062 12.7166C48.3062 13.5054 48.1587 14.1948 47.8637 14.7848C47.5687 15.3748 47.1544 15.8338 46.6208 16.1619C46.0872 16.4901 45.4624 16.6541 44.7465 16.6541ZM44.7515 15.4062C45.2155 15.4062 45.6 15.2836 45.9049 15.0384C46.2098 14.7931 46.4352 14.4666 46.5811 14.0589C46.7302 13.6513 46.8048 13.2022 46.8048 12.7116C46.8048 12.2244 46.7302 11.777 46.5811 11.3693C46.4352 10.9583 46.2098 10.6286 45.9049 10.38C45.6 10.1314 45.2155 10.0071 44.7515 10.0071C44.2842 10.0071 43.8964 10.1314 43.5882 10.38C43.2832 10.6286 43.0562 10.9583 42.907 11.3693C42.7612 11.777 42.6883 12.2244 42.6883 12.7116C42.6883 13.2022 42.7612 13.6513 42.907 14.0589C43.0562 14.4666 43.2832 14.7931 43.5882 15.0384C43.8964 15.2836 44.2842 15.4062 44.7515 15.4062ZM50.1055 16.5V8.86364H51.5323V10.1065H51.6268C51.7859 9.68561 52.046 9.35748 52.4073 9.12216C52.7686 8.88352 53.2011 8.7642 53.7049 8.7642C54.2153 8.7642 54.6429 8.88352 54.9876 9.12216C55.3356 9.3608 55.5924 9.68892 55.7582 10.1065H55.8377C56.02 9.69886 56.31 9.37405 56.7077 9.1321C57.1055 8.88684 57.5794 8.7642 58.1296 8.7642C58.8223 8.7642 59.3874 8.9813 59.8249 9.41548C60.2657 9.84967 60.4861 10.5043 60.4861 11.3793V16.5H58.9996V11.5185C58.9996 11.0014 58.8588 10.6269 58.5771 10.3949C58.2953 10.1629 57.9589 10.0469 57.5678 10.0469C57.0839 10.0469 56.7077 10.196 56.4393 10.4943C56.1708 10.7893 56.0366 11.1688 56.0366 11.6328V16.5H54.555V11.424C54.555 11.0097 54.4258 10.6766 54.1673 10.4247C53.9087 10.1728 53.5723 10.0469 53.158 10.0469C52.8763 10.0469 52.6161 10.1214 52.3775 10.2706C52.1422 10.4164 51.9516 10.6203 51.8057 10.8821C51.6632 11.1439 51.592 11.4472 51.592 11.7919V16.5H50.1055ZM65.9097 16.6541C65.1573 16.6541 64.5094 16.4934 63.9658 16.1719C63.4256 15.8471 63.0079 15.3913 62.713 14.8047C62.4213 14.2147 62.2755 13.5237 62.2755 12.7315C62.2755 11.9493 62.4213 11.2599 62.713 10.6634C63.0079 10.0668 63.4189 9.60109 63.9459 9.26633C64.4762 8.93158 65.096 8.7642 65.8053 8.7642C66.2362 8.7642 66.6538 8.83546 67.0581 8.97798C67.4625 9.1205 67.8254 9.34422 68.1469 9.64915C68.4684 9.95407 68.722 10.3501 68.9076 10.8374C69.0932 11.3213 69.186 11.9096 69.186 12.6023V13.1293H63.1157V12.0156H67.7293C67.7293 11.6245 67.6498 11.2782 67.4907 10.9766C67.3316 10.6716 67.1079 10.4313 66.8195 10.2557C66.5345 10.08 66.1997 9.99219 65.8152 9.99219C65.3976 9.99219 65.033 10.0949 64.7215 10.3004C64.4133 10.5026 64.1746 10.7678 64.0056 11.0959C63.8399 11.4207 63.757 11.7737 63.757 12.1548V13.0249C63.757 13.5353 63.8465 13.9695 64.0255 14.3274C64.2078 14.6854 64.4613 14.9588 64.7861 15.1477C65.1109 15.3333 65.4904 15.4261 65.9246 15.4261C66.2063 15.4261 66.4632 15.3864 66.6952 15.3068C66.9272 15.224 67.1277 15.1013 67.2968 14.9389C67.4658 14.7765 67.5951 14.576 67.6846 14.3374L69.0915 14.5909C68.9788 15.0052 68.7767 15.3681 68.485 15.6797C68.1966 15.9879 67.8337 16.2282 67.3962 16.4006C66.962 16.5696 66.4665 16.6541 65.9097 16.6541Z" fill="#8B8B8B"/>
</svg>
