<svg width="33" height="33" viewBox="0 0 33 33" fill="none" xmlns="http://www.w3.org/2000/svg">
<rect width="33" height="33" rx="16.5" fill="#FFEBB3"/>
<path d="M15.9013 11.8182V22H14.0419L9.61222 15.5916H9.53764V22H7.38494V11.8182H9.27415L13.669 18.2216H13.7585V11.8182H15.9013ZM21.6124 22.2237C20.7573 22.2204 20.0215 22.0099 19.405 21.5923C18.7918 21.1747 18.3195 20.5698 17.9881 19.7777C17.66 18.9856 17.4976 18.0327 17.5009 16.919C17.5009 15.8087 17.665 14.8625 17.9931 14.0803C18.3245 13.2981 18.7968 12.7031 19.41 12.2955C20.0265 11.8845 20.7606 11.679 21.6124 11.679C22.4642 11.679 23.1967 11.8845 23.8098 12.2955C24.4263 12.7064 24.9003 13.303 25.2317 14.0852C25.5632 14.8641 25.7272 15.8087 25.7239 16.919C25.7239 18.036 25.5582 18.9905 25.2267 19.7827C24.8986 20.5748 24.428 21.1797 23.8148 21.5973C23.2016 22.0149 22.4675 22.2237 21.6124 22.2237ZM21.6124 20.4389C22.1957 20.4389 22.6614 20.1456 23.0094 19.5589C23.3574 18.9723 23.5298 18.0923 23.5265 16.919C23.5265 16.1468 23.4469 15.5038 23.2878 14.9901C23.132 14.4763 22.91 14.0902 22.6216 13.8317C22.3366 13.5732 22.0002 13.4439 21.6124 13.4439C21.0324 13.4439 20.5684 13.7339 20.2203 14.3139C19.8723 14.8939 19.6967 15.7623 19.6934 16.919C19.6934 17.7012 19.7712 18.3542 19.927 18.8778C20.0861 19.3982 20.3098 19.7893 20.5982 20.0511C20.8865 20.3097 21.2246 20.4389 21.6124 20.4389Z" fill="#5C4608"/>
</svg>
