<svg width="31" height="31" viewBox="0 0 31 31" fill="none" xmlns="http://www.w3.org/2000/svg">
<rect width="31" height="31" rx="15.5" fill="#FFCFEE"/>
<path fill-rule="evenodd" clip-rule="evenodd" d="M5.64644 15.1374C5.43502 15.3028 5.15799 15.3831 4.87202 15.3373C4.33165 15.2508 3.95595 14.7275 4.04325 14.1881C4.38074 12.1431 5.83228 10.2028 7.8631 9.62254C9.52487 9.14774 10.9139 9.63901 11.8415 10.2085C12.3035 10.4921 12.6638 10.8015 12.9096 11.0401C13.0538 11.1802 13.1728 11.3076 13.2799 11.437C13.4238 11.6108 13.7327 12.4301 13.1451 12.8884C12.7111 13.2269 12.0854 13.1509 11.745 12.7192C11.1534 11.9964 10.2106 11.456 9.2678 11.4331C9.94502 11.9078 10.3878 12.6942 10.3878 13.5841C10.3878 16.0871 7.09556 17.1084 5.64644 15.1374ZM18.9843 15.3373C19.2703 15.3831 19.5473 15.3028 19.7587 15.1374C21.2079 17.1084 24.5001 16.0871 24.5001 13.5841C24.5001 12.6942 24.0573 11.9078 23.3801 11.4331C23.973 11.4475 24.4863 11.6544 24.9074 11.9129C25.2154 12.102 25.4609 12.3122 25.6286 12.475C26.0796 12.9129 26.6342 13.3745 27.2574 12.8884C27.7777 12.4826 27.7087 11.7923 27.3107 11.3418C27.1065 11.1108 26.6482 10.6348 25.9538 10.2085C25.0262 9.63901 23.6372 9.14774 21.9754 9.62254C20.3098 10.0984 19.3516 11.2915 18.8281 12.2803C18.3662 13.1528 18.2067 13.9124 18.1656 14.1315C18.0628 14.6796 18.4192 15.2469 18.9843 15.3373ZM15.2419 12.9659C14.6934 12.9014 14.1965 13.2937 14.1319 13.8422C13.6117 18.2643 15.0103 20.8463 16.7277 21.9299C15.7081 23.0752 13.7128 23.0492 12.3499 22.7347C11.8118 22.6105 11.2749 22.9461 11.1507 23.4842C11.0265 24.0224 11.3621 24.5593 11.9002 24.6835C14.566 25.2987 18.0944 24.7134 19.0738 21.7753C19.2553 21.2307 18.9246 20.6282 18.3676 20.4889C17.537 20.2813 15.5522 18.8876 16.1182 14.0759C16.1828 13.5274 15.7904 13.0305 15.2419 12.9659Z" fill="#832462"/>
</svg>
