<svg width="22" height="22" viewBox="0 0 22 22" fill="none" xmlns="http://www.w3.org/2000/svg">
<path d="M7.76188 10.1444L7.38126 10.3449L7.52263 10.7511C7.64194 11.094 7.77598 11.4769 8.03582 11.922C8.29536 12.3666 8.67012 12.8569 9.26195 13.4487C9.85377 14.0405 10.3441 14.4153 10.7887 14.6749C11.2338 14.9347 11.6167 15.0687 11.9596 15.1881L12.3658 15.3294L12.5663 14.9488L12.754 14.5924C13.3425 13.4749 14.7774 13.0897 15.9156 13.7931C16.5617 14.1924 16.942 14.8516 17.002 15.4673C17.0603 16.0654 16.8226 16.5982 16.2398 16.8804C15.0155 17.4732 13.8248 17.5649 12.5749 17.1617C11.304 16.7516 9.93919 15.8187 8.41558 14.2951C6.89197 12.7715 5.95905 11.4067 5.54903 10.1358C5.14575 8.88591 5.23751 7.6952 5.83031 6.47086C6.1125 5.88805 6.64532 5.65042 7.24338 5.70872C7.85909 5.76874 8.51832 6.14895 8.9176 6.7951C9.62096 7.93333 9.23579 9.36823 8.11827 9.95673L7.76188 10.1444Z" fill="black" stroke="black"/>
</svg>
