<svg width="32" height="32" viewBox="0 0 32 32" fill="none" xmlns="http://www.w3.org/2000/svg">
<path fill-rule="evenodd" clip-rule="evenodd" d="M8.88893 8.8889H23.1112C23.6021 8.8889 24 9.28687 24 9.77778V15.1111H22.2223C20.8449 15.1111 19.7553 16.2886 18.7985 17.3224L18.7983 17.3226C18.7322 17.3941 18.6666 17.465 18.6017 17.5346C17.9526 18.2311 17.0272 18.6667 16 18.6667C14.9729 18.6667 14.0475 18.2311 13.3984 17.5346C13.3334 17.4649 13.2678 17.394 13.2015 17.3224C12.2448 16.2886 11.1552 15.1111 9.77782 15.1111H8.00004V9.77779C8.00004 9.28686 8.39801 8.8889 8.88893 8.8889ZM8.00004 17.7778V23.1111C8.00004 23.602 8.39801 24 8.88893 24H23.1112C23.6021 24 24 23.602 24 23.1111V17.7778H22.2551C22.2159 17.792 22.1006 17.8442 21.8909 18.0101C21.546 18.283 21.2244 18.6294 20.7622 19.1272C20.6954 19.1991 20.6257 19.2742 20.5525 19.3527C19.4202 20.5678 17.7974 21.3333 16 21.3333C14.2026 21.3333 12.5799 20.5678 11.4476 19.3527C11.3746 19.2745 11.3051 19.1996 11.2386 19.1279L11.2379 19.1272C10.7757 18.6294 10.4541 18.283 10.1092 18.0101C9.89953 17.8442 9.78414 17.792 9.74495 17.7778H8.00004ZM5.33337 15.1111V9.77779C5.33337 7.81411 6.92525 6.22223 8.88893 6.22223H23.1112C25.0748 6.22223 26.6667 7.81411 26.6667 9.77778V15.1111V23.1111C26.6667 25.0748 25.0748 26.6667 23.1112 26.6667H8.88893C6.92525 26.6667 5.33337 25.0748 5.33337 23.1111V15.1111Z" fill="#3A3A3A"/>
</svg>
