<svg width="32" height="32" viewBox="0 0 32 32" fill="none" xmlns="http://www.w3.org/2000/svg">
<path fill-rule="evenodd" clip-rule="evenodd" d="M9.77782 6.22224C9.77782 5.2404 10.5738 4.44446 11.5556 4.44446C12.5374 4.44446 13.3334 5.2404 13.3334 6.22224H18.6667C18.6667 5.2404 19.4626 4.44446 20.4445 4.44446C21.4263 4.44446 22.2223 5.2404 22.2223 6.22224H23.1112C25.0748 6.22224 26.6667 7.81411 26.6667 9.77779V16.8889V24C26.6667 25.9637 25.0748 27.5556 23.1112 27.5556H8.88893C6.92525 27.5556 5.33337 25.9637 5.33337 24V16.8889V9.77779C5.33337 7.81411 6.92525 6.22224 8.88893 6.22224H9.77782ZM8.88893 8.8889H23.1112C23.6021 8.8889 24 9.28687 24 9.77779V12.8143C23.4556 12.5764 22.8544 12.4445 22.2223 12.4445H9.77782C9.14573 12.4445 8.54445 12.5764 8.00004 12.8143V9.77779C8.00004 9.28687 8.39801 8.8889 8.88893 8.8889ZM8.00004 16.8889V24C8.00004 24.4909 8.39801 24.8889 8.88893 24.8889H23.1112C23.6021 24.8889 24 24.4909 24 24V16.8889C24 15.9071 23.2041 15.1111 22.2223 15.1111H9.77782C8.79598 15.1111 8.00004 15.9071 8.00004 16.8889Z" fill="#3A3A3A"/>
</svg>
