<svg width="29" height="30" viewBox="0 0 29 30" fill="none" xmlns="http://www.w3.org/2000/svg">
<path fill-rule="evenodd" clip-rule="evenodd" d="M13.9495 11.2273C14.5353 10.6415 14.5353 9.69175 13.9495 9.10597C13.3637 8.52018 12.414 8.52018 11.8282 9.10597L6.99488 13.9393C6.4091 14.5251 6.4091 15.4748 6.99488 16.0606L11.8282 20.894C12.414 21.4797 13.3637 21.4797 13.9495 20.894C14.5353 20.3082 14.5353 19.3584 13.9495 18.7726L10.1769 15L13.9495 11.2273ZM22.0051 11.2273C22.5909 10.6415 22.5909 9.69175 22.0051 9.10597C21.4193 8.52018 20.4695 8.52018 19.8838 9.10597L15.0504 13.9393C14.4646 14.5251 14.4646 15.4748 15.0504 16.0606L19.8838 20.894C20.4695 21.4797 21.4193 21.4797 22.0051 20.894C22.5909 20.3082 22.5909 19.3584 22.0051 18.7726L18.2324 15L22.0051 11.2273Z" fill="black"/>
</svg>
