<svg width="20" height="20" viewBox="0 0 20 20" fill="none" xmlns="http://www.w3.org/2000/svg">
<path fill-rule="evenodd" clip-rule="evenodd" d="M5.05321 3.39336C4.35688 3.07125 3.52732 3.17281 3.01046 3.7476C2.71678 4.0742 2.44481 4.42143 2.19688 4.78694C1.76146 5.42883 1.84898 6.27739 2.31208 6.89879C3.0624 7.90557 2.73716 9.3598 1.63299 9.93474C0.952399 10.2891 0.512704 11.0135 0.630038 11.7838C0.697647 12.2276 0.794829 12.6615 0.919466 13.0832C1.14019 13.8301 1.84529 14.2884 2.6097 14.3064C3.84934 14.3357 4.76179 15.5021 4.51388 16.7416C4.36111 17.5054 4.64195 18.3077 5.30554 18.6942C5.68228 18.9136 6.0752 19.1074 6.48202 19.2733C7.19195 19.5628 7.98242 19.2865 8.47279 18.688C9.26849 17.7169 10.7315 17.7169 11.5272 18.688C12.0176 19.2865 12.8081 19.5628 13.518 19.2733C13.9248 19.1074 14.3177 18.9136 14.6945 18.6942C15.3581 18.3077 15.6389 17.5054 15.4861 16.7416C15.2382 15.5021 16.1507 14.3357 17.3903 14.3064C18.1547 14.2884 18.8598 13.8301 19.0805 13.0832C19.2052 12.6615 19.3024 12.2276 19.37 11.7838C19.4873 11.0135 19.0476 10.2891 18.367 9.93474C17.2628 9.3598 16.9376 7.90557 17.6879 6.89879C18.151 6.27739 18.2386 5.42883 17.8031 4.78694C17.5552 4.42143 17.2832 4.0742 16.9895 3.7476C16.4727 3.17281 15.6431 3.07125 14.9468 3.39336C13.8181 3.91547 12.5013 3.26813 12.1977 2.04231C12.0102 1.28541 11.4143 0.686606 10.6509 0.633631C10.2176 0.603568 9.78236 0.603568 9.34911 0.633631C8.58567 0.686605 7.98979 1.28541 7.80232 2.04231C7.49872 3.26812 6.18187 3.91547 5.05321 3.39336ZM10 13.263C11.6115 13.263 12.9178 11.9302 12.9178 10.2861C12.9178 8.64201 11.6115 7.30922 10 7.30922C8.38856 7.30922 7.08221 8.64201 7.08221 10.2861C7.08221 11.9302 8.38856 13.263 10 13.263Z" fill="black"/>
</svg>
