<svg width="32" height="32" viewBox="0 0 32 32" fill="none" xmlns="http://www.w3.org/2000/svg">
<path fill-rule="evenodd" clip-rule="evenodd" d="M8.88893 6.22223C6.92525 6.22223 5.33337 7.81411 5.33337 9.77779V24C5.33337 25.9637 6.92525 27.5556 8.88893 27.5556H23.1112C25.0748 27.5556 26.6667 25.9637 26.6667 24V18.6667C26.6667 17.9303 26.0698 17.3333 25.3334 17.3333C24.597 17.3333 24 17.9303 24 18.6667V24C24 24.4909 23.6021 24.8889 23.1112 24.8889H8.88893C8.39801 24.8889 8.00004 24.4909 8.00004 24V9.77779C8.00004 9.28686 8.39801 8.8889 8.88893 8.8889H21.3334C22.0698 8.8889 22.6667 8.29194 22.6667 7.55556C22.6667 6.81918 22.0698 6.22223 21.3334 6.22223H8.88893Z" fill="#3A3A3A"/>
<path fill-rule="evenodd" clip-rule="evenodd" d="M28.9428 7.94607C29.4635 8.46677 29.4635 9.31099 28.9428 9.83168L17.3872 21.3872C16.8665 21.9079 16.0223 21.9079 15.5016 21.3872L10.6127 16.4984C10.092 15.9777 10.092 15.1334 10.6127 14.6127C11.1334 14.092 11.9776 14.092 12.4983 14.6127L16.4444 18.5588L27.0571 7.94607C27.5778 7.42537 28.4221 7.42537 28.9428 7.94607Z" fill="#3A3A3A"/>
</svg>
