<svg width="32" height="32" viewBox="0 0 32 32" fill="none" xmlns="http://www.w3.org/2000/svg">
<path fill-rule="evenodd" clip-rule="evenodd" d="M18.942 4.87954C17.3813 3.10672 14.6188 3.10672 13.0582 4.87954C12.7558 5.22302 12.2902 5.3743 11.8437 5.27415C9.53906 4.75724 7.30414 6.381 7.08359 8.73256C7.04085 9.18818 6.7531 9.58424 6.33299 9.76568C4.16467 10.7021 3.31101 13.3294 4.51479 15.3615C4.74802 15.7552 4.74802 16.2448 4.51479 16.6385C3.31101 18.6706 4.16467 21.2979 6.33299 22.2343C6.7531 22.4158 7.04085 22.8118 7.08359 23.2674C7.30414 25.619 9.53906 27.2428 11.8437 26.7259C12.2902 26.6257 12.7558 26.777 13.0582 27.1205C14.6188 28.8933 17.3813 28.8933 18.942 27.1205C19.2444 26.777 19.71 26.6257 20.1565 26.7259C22.4611 27.2428 24.696 25.619 24.9166 23.2674C24.9593 22.8118 25.2471 22.4158 25.6672 22.2343C27.8355 21.2979 28.6891 18.6706 27.4854 16.6385C27.2521 16.2448 27.2521 15.7552 27.4854 15.3615C28.6891 13.3294 27.8355 10.7021 25.6672 9.76568C25.2471 9.58424 24.9593 9.18818 24.9166 8.73256C24.696 6.381 22.4611 4.75724 20.1565 5.27415C19.71 5.3743 19.2444 5.22302 18.942 4.87954ZM15.0598 6.64158C15.5586 6.07493 16.4416 6.07493 16.9404 6.64158C17.8864 7.7162 19.3431 8.18951 20.7401 7.87617C21.4767 7.71095 22.1911 8.22995 22.2616 8.98158C22.3953 10.407 23.2955 11.6462 24.6099 12.2138C25.303 12.5131 25.5758 13.3529 25.191 14.0024C24.4614 15.2342 24.4614 16.7658 25.191 17.9976C25.5758 18.6471 25.303 19.4869 24.6099 19.7862C23.2955 20.3538 22.3953 21.593 22.2616 23.0184C22.1911 23.7701 21.4767 24.2891 20.7401 24.1238C19.3431 23.8105 17.8864 24.2838 16.9404 25.3584C16.4416 25.9251 15.5586 25.9251 15.0598 25.3584C14.1137 24.2838 12.6571 23.8105 11.2601 24.1238C10.5234 24.2891 9.8091 23.7701 9.7386 23.0184C9.60491 21.593 8.70462 20.3538 7.39026 19.7862C6.69721 19.4869 6.42435 18.6471 6.80911 17.9976C7.53881 16.7658 7.53881 15.2342 6.80911 14.0024C6.42435 13.3529 6.69721 12.5131 7.39026 12.2138C8.70462 11.6462 9.60491 10.407 9.7386 8.98158C9.8091 8.22995 10.5234 7.71095 11.2601 7.87617C12.6571 8.18951 14.1137 7.7162 15.0598 6.64158ZM16.8624 12.3357C16.6378 11.4382 15.3623 11.4382 15.1378 12.3357L14.7064 14.0598C14.6268 14.3781 14.3782 14.6267 14.0599 14.7063L12.3358 15.1377C11.4383 15.3622 11.4383 16.6377 12.3358 16.8623L14.0599 17.2936C14.3782 17.3732 14.6268 17.6218 14.7064 17.9402L15.1378 19.6642C15.3623 20.5618 16.6378 20.5618 16.8624 19.6642L17.2937 17.9402C17.3733 17.6218 17.6219 17.3732 17.9403 17.2936L19.6643 16.8623C20.5619 16.6377 20.5619 15.3622 19.6643 15.1377L17.9403 14.7063C17.6219 14.6267 17.3733 14.3781 17.2937 14.0598L16.8624 12.3357Z" fill="#3A3A3A"/>
</svg>
