<svg width="32" height="32" viewBox="0 0 32 32" fill="none" xmlns="http://www.w3.org/2000/svg">
<path fill-rule="evenodd" clip-rule="evenodd" d="M9.77779 7.11112H22.2222C22.7132 7.11112 23.1111 7.50909 23.1111 8.00001V24.8889C23.1111 25.3798 22.7132 25.7778 22.2222 25.7778H9.77779C9.28687 25.7778 8.8889 25.3798 8.8889 24.8889V21.7778V16.4445V11.1111V8.00001C8.8889 7.50909 9.28687 7.11112 9.77779 7.11112ZM6.22224 23.1111V24.8889C6.22224 26.8526 7.81411 28.4445 9.77779 28.4445H22.2222C24.1859 28.4445 25.7778 26.8526 25.7778 24.8889V8.00001C25.7778 6.03633 24.1859 4.44446 22.2222 4.44446H9.77779C7.81411 4.44446 6.22224 6.03633 6.22224 8.00001V9.77779H5.77779C5.04141 9.77779 4.44446 10.3747 4.44446 11.1111C4.44446 11.8475 5.04141 12.4445 5.77779 12.4445H6.22224V15.1111H5.77779C5.04141 15.1111 4.44446 15.7081 4.44446 16.4445C4.44446 17.1808 5.04141 17.7778 5.77779 17.7778H6.22224V20.4445H5.77779C5.04141 20.4445 4.44446 21.0414 4.44446 21.7778C4.44446 22.5142 5.04141 23.1111 5.77779 23.1111H6.22224ZM11.1111 11.5556C11.1111 10.8192 11.7081 10.2222 12.4445 10.2222H19.5556C20.2919 10.2222 20.8889 10.8192 20.8889 11.5556C20.8889 12.2919 20.2919 12.8889 19.5556 12.8889H12.4445C11.7081 12.8889 11.1111 12.2919 11.1111 11.5556ZM12.4445 15.5556C11.7081 15.5556 11.1111 16.1525 11.1111 16.8889C11.1111 17.6253 11.7081 18.2222 12.4445 18.2222H15.1111C15.8475 18.2222 16.4445 17.6253 16.4445 16.8889C16.4445 16.1525 15.8475 15.5556 15.1111 15.5556H12.4445Z" fill="#3A3A3A"/>
</svg>
