<svg width="20" height="23" viewBox="0 0 20 23" fill="none" xmlns="http://www.w3.org/2000/svg">
<path fill-rule="evenodd" clip-rule="evenodd" d="M0.222168 8.28284C0.222168 7.42968 0.630392 6.62802 1.32038 6.12621L8.43149 0.954495C9.36656 0.274446 10.6333 0.274446 11.5684 0.954495L14.4444 3.04612V2.48048C14.4444 1.98956 14.8424 1.59159 15.3333 1.59159H18.3819C18.8728 1.59159 19.2708 1.98956 19.2708 2.48048V6.71866C19.5963 7.16809 19.7777 7.71402 19.7777 8.28284V20.2582C19.7777 21.731 18.5838 22.9249 17.1111 22.9249H2.88883C1.41608 22.9249 0.222168 21.731 0.222168 20.2582V8.28284ZM9.11106 10.4805C8.12922 10.4805 7.33328 11.2764 7.33328 12.2583V14.036C7.33328 15.0179 8.12922 15.8138 9.11106 15.8138H10.8888C11.8707 15.8138 12.6666 15.0179 12.6666 14.036V12.2583C12.6666 11.2764 11.8707 10.4805 10.8888 10.4805H9.11106Z" fill="#3A3A3A"/>
</svg>
