<svg width="14" height="16" viewBox="0 0 14 16" fill="none" xmlns="http://www.w3.org/2000/svg">
<path fill-rule="evenodd" clip-rule="evenodd" d="M0.277832 5.44443C0.277832 4.85788 0.558486 4.30674 1.03285 3.96175L5.92174 0.406193C6.5646 -0.0613415 7.43551 -0.0613415 8.07837 0.406193L10.0556 1.84419V1.45531C10.0556 1.1178 10.3292 0.844198 10.6667 0.844198H12.7627C13.1002 0.844198 13.3738 1.1178 13.3738 1.45531V4.36905C13.5975 4.67804 13.7223 5.05336 13.7223 5.44443V13.6775C13.7223 14.69 12.9015 15.5109 11.8889 15.5109H2.11117C1.09864 15.5109 0.277832 14.69 0.277832 13.6775V5.44443ZM6.38894 6.95531C5.71393 6.95531 5.16672 7.50252 5.16672 8.17753V9.39975C5.16672 10.0748 5.71393 10.622 6.38894 10.622H7.61117C8.28618 10.622 8.83339 10.0748 8.83339 9.39975V8.17753C8.83339 7.50252 8.28618 6.95531 7.61117 6.95531H6.38894Z" fill="#8B8B8B"/>
</svg>
