<svg width="22" height="21" viewBox="0 0 22 21" fill="none" xmlns="http://www.w3.org/2000/svg">
<path fill-rule="evenodd" clip-rule="evenodd" d="M3.88893 2.8889H18.1112C18.6021 2.8889 19 3.28687 19 3.77778V9.11112H17.2223C15.8449 9.11112 14.7553 10.2886 13.7985 11.3224L13.7983 11.3226C13.7322 11.3941 13.6666 11.465 13.6017 11.5346C12.9526 12.2311 12.0272 12.6667 11 12.6667C9.97289 12.6667 9.04747 12.2311 8.39839 11.5346C8.33338 11.4649 8.26778 11.394 8.20154 11.3224C7.24481 10.2886 6.15522 9.11112 4.77782 9.11112H3.00004V3.77779C3.00004 3.28686 3.39801 2.8889 3.88893 2.8889ZM3.00004 11.7778V17.1111C3.00004 17.602 3.39801 18 3.88893 18H18.1112C18.6021 18 19 17.602 19 17.1111V11.7778H17.2551C17.2159 11.792 17.1006 11.8442 16.8909 12.0101C16.546 12.283 16.2244 12.6294 15.7622 13.1272C15.6954 13.1991 15.6257 13.2742 15.5525 13.3527C14.4202 14.5678 12.7974 15.3333 11 15.3333C9.20264 15.3333 7.57993 14.5678 6.44756 13.3527C6.37465 13.2745 6.30515 13.1996 6.23856 13.1279L6.23793 13.1272C5.77573 12.6294 5.45413 12.283 5.10921 12.0101C4.89953 11.8442 4.78414 11.792 4.74495 11.7778H3.00004ZM0.333374 9.11112V3.77779C0.333374 1.81411 1.92525 0.222229 3.88893 0.222229H18.1112C20.0748 0.222229 21.6667 1.81411 21.6667 3.77778V9.11112V17.1111C21.6667 19.0748 20.0748 20.6667 18.1112 20.6667H3.88893C1.92525 20.6667 0.333374 19.0748 0.333374 17.1111V9.11112Z" fill="#3A3A3A"/>
</svg>
