<svg width="20" height="21" viewBox="0 0 20 21" fill="none" xmlns="http://www.w3.org/2000/svg">
<path fill-rule="evenodd" clip-rule="evenodd" d="M14.3333 8.66667C14.3333 11.8577 11.7465 14.4445 8.55553 14.4445C5.36455 14.4445 2.77775 11.8577 2.77775 8.66667C2.77775 5.4757 5.36455 2.8889 8.55553 2.8889C11.7465 2.8889 14.3333 5.4757 14.3333 8.66667ZM12.5856 16.0893C11.3879 16.7409 10.0149 17.1111 8.55553 17.1111C3.89179 17.1111 0.111084 13.3304 0.111084 8.66667C0.111084 4.00294 3.89179 0.222229 8.55553 0.222229C13.2193 0.222229 17 4.00294 17 8.66667C17 10.9022 16.1313 12.9349 14.713 14.4455L18.8317 18.5641C19.3524 19.0848 19.3524 19.929 18.8317 20.4497C18.311 20.9704 17.4667 20.9704 16.946 20.4497L12.5856 16.0893Z" fill="#3A3A3A"/>
</svg>
