<svg width="22" height="25" viewBox="0 0 22 25" fill="none" xmlns="http://www.w3.org/2000/svg">
<path fill-rule="evenodd" clip-rule="evenodd" d="M5.77779 3.11112H18.2222C18.7132 3.11112 19.1111 3.50909 19.1111 4.00001V20.8889C19.1111 21.3798 18.7132 21.7778 18.2222 21.7778H5.77779C5.28687 21.7778 4.8889 21.3798 4.8889 20.8889V17.7778V12.4445V7.11112V4.00001C4.8889 3.50909 5.28687 3.11112 5.77779 3.11112ZM2.22224 19.1111V20.8889C2.22224 22.8526 3.81411 24.4445 5.77779 24.4445H18.2222C20.1859 24.4445 21.7778 22.8526 21.7778 20.8889V4.00001C21.7778 2.03633 20.1859 0.444458 18.2222 0.444458H5.77779C3.81411 0.444458 2.22224 2.03633 2.22224 4.00001V5.77779H1.77779C1.04141 5.77779 0.444458 6.37474 0.444458 7.11112C0.444458 7.8475 1.04141 8.44446 1.77779 8.44446H2.22224V11.1111H1.77779C1.04141 11.1111 0.444458 11.7081 0.444458 12.4445C0.444458 13.1808 1.04141 13.7778 1.77779 13.7778H2.22224V16.4445H1.77779C1.04141 16.4445 0.444458 17.0414 0.444458 17.7778C0.444458 18.5142 1.04141 19.1111 1.77779 19.1111H2.22224ZM7.11112 7.55557C7.11112 6.81919 7.70808 6.22224 8.44446 6.22224H15.5556C16.2919 6.22224 16.8889 6.81919 16.8889 7.55557C16.8889 8.29195 16.2919 8.8889 15.5556 8.8889H8.44446C7.70808 8.8889 7.11112 8.29195 7.11112 7.55557ZM8.44446 11.5556C7.70808 11.5556 7.11112 12.1525 7.11112 12.8889C7.11112 13.6253 7.70808 14.2222 8.44446 14.2222H11.1111C11.8475 14.2222 12.4445 13.6253 12.4445 12.8889C12.4445 12.1525 11.8475 11.5556 11.1111 11.5556H8.44446Z" fill="#3A3A3A"/>
</svg>
