<svg width="26" height="26" viewBox="0 0 26 26" fill="none" xmlns="http://www.w3.org/2000/svg">
<path fill-rule="evenodd" clip-rule="evenodd" d="M15.942 1.87954C14.3813 0.106723 11.6188 0.106723 10.0582 1.87954C9.75581 2.22302 9.2902 2.3743 8.84368 2.27415C6.53906 1.75724 4.30414 3.381 4.08359 5.73256C4.04085 6.18818 3.7531 6.58424 3.33299 6.76568C1.16467 7.70211 0.311012 10.3294 1.51479 12.3615C1.74802 12.7552 1.74802 13.2448 1.51479 13.6385C0.311012 15.6706 1.16467 18.2979 3.33299 19.2343C3.7531 19.4158 4.04085 19.8118 4.08359 20.2674C4.30414 22.619 6.53906 24.2428 8.84368 23.7259C9.2902 23.6257 9.75581 23.777 10.0582 24.1205C11.6188 25.8933 14.3813 25.8933 15.942 24.1205C16.2444 23.777 16.71 23.6257 17.1565 23.7259C19.4611 24.2428 21.696 22.619 21.9166 20.2674C21.9593 19.8118 22.2471 19.4158 22.6672 19.2343C24.8355 18.2979 25.6891 15.6706 24.4854 13.6385C24.2521 13.2448 24.2521 12.7552 24.4854 12.3615C25.6891 10.3294 24.8355 7.70211 22.6672 6.76568C22.2471 6.58424 21.9593 6.18818 21.9166 5.73256C21.696 3.381 19.4611 1.75724 17.1565 2.27415C16.71 2.3743 16.2444 2.22302 15.942 1.87954ZM12.0598 3.64158C12.5586 3.07493 13.4416 3.07493 13.9404 3.64158C14.8864 4.7162 16.3431 5.18951 17.7401 4.87617C18.4767 4.71095 19.1911 5.22995 19.2616 5.98158C19.3953 7.40702 20.2955 8.64616 21.6099 9.21379C22.303 9.51311 22.5758 10.3529 22.191 11.0024C21.4614 12.2342 21.4614 13.7658 22.191 14.9976C22.5758 15.6471 22.303 16.4869 21.6099 16.7862C20.2955 17.3538 19.3953 18.593 19.2616 20.0184C19.1911 20.7701 18.4767 21.2891 17.7401 21.1238C16.3431 20.8105 14.8864 21.2838 13.9404 22.3584C13.4416 22.9251 12.5586 22.9251 12.0598 22.3584C11.1137 21.2838 9.65706 20.8105 8.26007 21.1238C7.52344 21.2891 6.8091 20.7701 6.7386 20.0184C6.60491 18.593 5.70462 17.3538 4.39026 16.7862C3.69721 16.4869 3.42435 15.6471 3.80911 14.9976C4.53881 13.7658 4.53881 12.2342 3.80911 11.0024C3.42435 10.3529 3.69721 9.51311 4.39026 9.21379C5.70462 8.64616 6.60491 7.40702 6.7386 5.98158C6.8091 5.22995 7.52344 4.71095 8.26007 4.87617C9.65706 5.18951 11.1137 4.7162 12.0598 3.64158ZM13.8624 9.33572C13.6378 8.43817 12.3623 8.43817 12.1378 9.33572L11.7064 11.0598C11.6268 11.3781 11.3782 11.6267 11.0599 11.7063L9.33581 12.1377C8.43827 12.3622 8.43826 13.6377 9.33581 13.8623L11.0599 14.2936C11.3782 14.3732 11.6268 14.6218 11.7064 14.9402L12.1378 16.6642C12.3623 17.5618 13.6378 17.5618 13.8624 16.6642L14.2937 14.9402C14.3733 14.6218 14.6219 14.3732 14.9403 14.2936L16.6643 13.8623C17.5619 13.6377 17.5619 12.3622 16.6643 12.1377L14.9403 11.7063C14.6219 11.6267 14.3733 11.3781 14.2937 11.0598L13.8624 9.33572Z" fill="#3A3A3A"/>
</svg>
