<svg width="22" height="24" viewBox="0 0 22 24" fill="none" xmlns="http://www.w3.org/2000/svg">
<path fill-rule="evenodd" clip-rule="evenodd" d="M4.77782 2.22224C4.77782 1.2404 5.57376 0.444458 6.5556 0.444458C7.53744 0.444458 8.33337 1.2404 8.33337 2.22224H13.6667C13.6667 1.2404 14.4626 0.444458 15.4445 0.444458C16.4263 0.444458 17.2223 1.2404 17.2223 2.22224H18.1112C20.0748 2.22224 21.6667 3.81411 21.6667 5.77779V12.8889V20C21.6667 21.9637 20.0748 23.5556 18.1112 23.5556H3.88893C1.92525 23.5556 0.333374 21.9637 0.333374 20V12.8889V5.77779C0.333374 3.81411 1.92525 2.22224 3.88893 2.22224H4.77782ZM3.88893 4.8889H18.1112C18.6021 4.8889 19 5.28687 19 5.77779V8.81427C18.4556 8.57641 17.8544 8.44446 17.2223 8.44446H4.77782C4.14573 8.44446 3.54445 8.57641 3.00004 8.81427V5.77779C3.00004 5.28687 3.39801 4.8889 3.88893 4.8889ZM3.00004 12.8889V20C3.00004 20.4909 3.39801 20.8889 3.88893 20.8889H18.1112C18.6021 20.8889 19 20.4909 19 20V12.8889C19 11.9071 18.2041 11.1111 17.2223 11.1111H4.77782C3.79598 11.1111 3.00004 11.9071 3.00004 12.8889Z" fill="#3A3A3A"/>
</svg>
