<svg width="22" height="22" viewBox="0 0 22 22" fill="none" xmlns="http://www.w3.org/2000/svg">
<path fill-rule="evenodd" clip-rule="evenodd" d="M3.88893 0.222229C1.92525 0.222229 0.333374 1.81411 0.333374 3.77779V18C0.333374 19.9637 1.92525 21.5556 3.88893 21.5556H18.1112C20.0748 21.5556 21.6667 19.9637 21.6667 18V12.6667C21.6667 11.9303 21.0698 11.3333 20.3334 11.3333C19.597 11.3333 19 11.9303 19 12.6667V18C19 18.4909 18.6021 18.8889 18.1112 18.8889H3.88893C3.39801 18.8889 3.00004 18.4909 3.00004 18V3.77779C3.00004 3.28686 3.39801 2.8889 3.88893 2.8889H16.3334C17.0698 2.8889 17.6667 2.29194 17.6667 1.55556C17.6667 0.819183 17.0698 0.222229 16.3334 0.222229H3.88893Z" fill="#3A3A3A"/>
</svg>
