<svg width="24" height="16" viewBox="0 0 24 16" fill="none" xmlns="http://www.w3.org/2000/svg">
<path fill-rule="evenodd" clip-rule="evenodd" d="M1.64644 6.13736C1.43502 6.30276 1.15799 6.38309 0.872022 6.33732C0.331648 6.25082 -0.044051 5.72753 0.0432467 5.18814C0.380745 3.14313 1.83228 1.20277 3.8631 0.622535C5.52487 0.147745 6.91393 0.639014 7.84154 1.20852C8.30345 1.49212 8.66383 1.80154 8.90956 2.04014C9.05384 2.18024 9.17282 2.3076 9.27994 2.437C9.42384 2.61085 9.73269 3.4301 9.14509 3.88841C8.71105 4.22694 8.0854 4.1509 7.74496 3.71924C7.15342 2.99641 6.21062 2.456 5.2678 2.4331C5.94502 2.90783 6.38778 3.69425 6.38778 4.58408C6.38778 7.08712 3.09556 8.10844 1.64644 6.13736ZM14.9843 6.33732C15.2703 6.38309 15.5473 6.30276 15.7587 6.13735C17.2079 8.10844 20.5001 7.08712 20.5001 4.58408C20.5001 3.69425 20.0573 2.90783 19.3801 2.4331C19.973 2.4475 20.4863 2.65437 20.9074 2.91293C21.2154 3.10204 21.4609 3.3122 21.6286 3.475C22.0796 3.91293 22.6342 4.37447 23.2574 3.88841C23.7777 3.48256 23.7087 2.79226 23.3107 2.34185C23.1065 2.1108 22.6482 1.63482 21.9538 1.20852C21.0262 0.639014 19.6372 0.147745 17.9754 0.622535C16.3098 1.09844 15.3516 2.29149 14.8281 3.28032C14.3662 4.15283 14.2067 4.91242 14.1656 5.13152C14.0628 5.67956 14.4192 6.24685 14.9843 6.33732ZM11.2419 3.96593C10.6934 3.9014 10.1965 4.29374 10.1319 4.84224C9.61168 9.26431 11.0103 11.8463 12.7277 12.9299C11.7081 14.0752 9.71276 14.0492 8.34994 13.7347C7.8118 13.6105 7.27487 13.9461 7.15069 14.4842C7.0265 15.0224 7.36208 15.5593 7.90022 15.6835C10.566 16.2987 14.0944 15.7134 15.0738 12.7753C15.2553 12.2307 14.9246 11.6282 14.3676 11.4889C13.537 11.2813 11.5522 9.88757 12.1182 5.07592C12.1828 4.52742 11.7904 4.03046 11.2419 3.96593Z" fill="#832462"/>
</svg>
